<?xml version="1.0" encoding="UTF-8"?>
<svg width="224px" height="221px" viewBox="0 0 224 221" version="1.1" xmlns="http://www.w3.org/2000/svg" xmlns:xlink="http://www.w3.org/1999/xlink">
    <!-- Generator: Sketch 54 (76480) - https://sketchapp.com -->
    <title>编组 2@2x</title>
    <desc>Created with Sketch.</desc>
    <defs>
        <circle id="path-1" cx="110.5" cy="110.5" r="110.5"></circle>
        <path d="M27.99067,46.4216002 L191.406581,46.4216002 C193.607775,46.4216002 195.395328,48.2000791 195.406529,50.4012442 L196.017215,170.401244 C196.028457,172.610355 194.246733,174.410306 192.037623,174.421548 C192.030837,174.421583 192.024052,174.4216 192.017267,174.4216 L28.6013555,174.4216 C26.4001619,174.4216 24.6126091,172.643121 24.6014073,170.441956 L23.9907218,50.4419561 C23.9794796,48.2328457 25.7612037,46.4328942 27.9703141,46.421652 C27.9770994,46.4216174 27.9838847,46.4216002 27.99067,46.4216002 Z" id="path-3"></path>
        <filter x="-11.6%" y="-14.8%" width="123.3%" height="131.3%" filterUnits="objectBoundingBox" id="filter-4">
            <feOffset dx="0" dy="1" in="SourceAlpha" result="shadowOffsetOuter1"></feOffset>
            <feGaussianBlur stdDeviation="6.5" in="shadowOffsetOuter1" result="shadowBlurOuter1"></feGaussianBlur>
            <feColorMatrix values="0 0 0 0 0   0 0 0 0 0   0 0 0 0 0  0 0 0 0.07 0" type="matrix" in="shadowBlurOuter1"></feColorMatrix>
        </filter>
        <linearGradient x1="29.9362793%" y1="0%" x2="50%" y2="100%" id="linearGradient-5">
            <stop stop-color="#D1D8E1" offset="0%"></stop>
            <stop stop-color="#A4AFBF" offset="100%"></stop>
        </linearGradient>
    </defs>
    <g id="登录" stroke="none" stroke-width="1" fill="none" fill-rule="evenodd">
        <g id="无权限" transform="translate(-456.000000, -273.000000)">
            <g id="编组-2" transform="translate(456.000000, 273.000000)">
                <g id="编组">
                    <g id="BG-+-BG-+-BG蒙版" transform="translate(110.500000, 110.500000) rotate(-360.000000) translate(-110.500000, -110.500000) ">
                        <mask id="mask-2" fill="white">
                            <use xlink:href="#path-1"></use>
                        </mask>
                        <use id="蒙版" fill="#F6F7F8" xlink:href="#path-1"></use>
                        <g id="BG" mask="url(#mask-2)" transform="translate(110.003968, 110.421600) rotate(-360.000000) translate(-110.003968, -110.421600) ">
                            <use fill="black" fill-opacity="1" filter="url(#filter-4)" xlink:href="#path-3"></use>
                            <use fill="#FFFFFF" fill-rule="evenodd" xlink:href="#path-3"></use>
                        </g>
                        <polygon id="矩形" fill="#F3F4F5" mask="url(#mask-2)" points="46 68 174 68 174 80 46 80"></polygon>
                        <polygon id="矩形" fill="#F3F4F5" mask="url(#mask-2)" points="46 104 174 104 174 116 46 116"></polygon>
                        <polygon id="矩形" fill="#F3F4F5" mask="url(#mask-2)" points="46 140 174 140 174 152 46 152"></polygon>
                        <circle id="椭圆形" fill="#ECEEF1" mask="url(#mask-2)" cx="69" cy="74" r="13"></circle>
                        <circle id="椭圆形" fill="#ECEEF1" mask="url(#mask-2)" cx="110" cy="109" r="13"></circle>
                        <circle id="椭圆形" fill="#ECEEF1" mask="url(#mask-2)" cx="69" cy="148" r="13"></circle>
                    </g>
                </g>
                <path d="M174,137 L174,129 C174,118.50659 182.50659,110 193,110 C203.49341,110 212,118.50659 212,129 L212,137 L220,137 C222.209139,137 224,138.790861 224,141 L224,186 C224,188.209139 222.209139,190 220,190 L166,190 C163.790861,190 162,188.209139 162,186 L162,141 C162,138.790861 163.790861,137 166,137 L174,137 Z M193,118 C186.924868,118 182,122.924868 182,129 L182,139 L204,139 L204,129 C204,122.924868 199.075132,118 193,118 Z" id="形状结合" fill="url(#linearGradient-5)"></path>
                <circle id="椭圆形" fill="#8C96A5" cx="193" cy="159" r="8"></circle>
                <path d="M193,161 L193,161 C195.209139,161 197,162.790861 197,165 L197,173 C197,175.209139 195.209139,177 193,177 L193,177 C190.790861,177 189,175.209139 189,173 L189,165 C189,162.790861 190.790861,161 193,161 Z" id="矩形" fill="#8C96A5"></path>
            </g>
        </g>
    </g>
</svg>