<?xml version="1.0" encoding="UTF-8"?>
<svg width="223px" height="221px" viewBox="0 0 223 221" version="1.1" xmlns="http://www.w3.org/2000/svg" xmlns:xlink="http://www.w3.org/1999/xlink">
    <!-- Generator: Sketch 54 (76480) - https://sketchapp.com -->
    <title>编组 4@2x</title>
    <desc>Created with Sketch.</desc>
    <defs>
        <circle id="path-1" cx="110.5" cy="110.5" r="110.5"></circle>
        <linearGradient x1="9.17764563%" y1="82.810227%" x2="62.0562276%" y2="29.6114811%" id="linearGradient-3">
            <stop stop-color="#FFFFFF" stop-opacity="0" offset="0%"></stop>
            <stop stop-color="#F5F5F7" offset="69.5160263%"></stop>
            <stop stop-color="#E9E9E9" offset="100%"></stop>
        </linearGradient>
        <linearGradient x1="37.0623968%" y1="9.3751965%" x2="72.3847212%" y2="58.1247228%" id="linearGradient-4">
            <stop stop-color="#FEFEFE" offset="0%"></stop>
            <stop stop-color="#DDDDDD" offset="100%"></stop>
        </linearGradient>
        <path d="M159.483181,51.2347197 C155.860104,68.9838836 134.756193,79.7149873 112.321773,75.1654889 C89.8873533,70.6159906 74.6581486,52.5404053 78.2812256,34.7708401 C81.9043025,17.0012749 103.008214,6.29057254 125.422164,10.8400709 C147.836115,15.3895692 163.106258,33.4651545 159.483181,51.2347197 Z" id="path-5"></path>
        <filter x="-24.3%" y="-28.6%" width="148.6%" height="160.2%" filterUnits="objectBoundingBox" id="filter-6">
            <feOffset dx="0" dy="1" in="SourceAlpha" result="shadowOffsetOuter1"></feOffset>
            <feGaussianBlur stdDeviation="6.5" in="shadowOffsetOuter1" result="shadowBlurOuter1"></feGaussianBlur>
            <feColorMatrix values="0 0 0 0 0   0 0 0 0 0   0 0 0 0 0  0 0 0 0.07 0" type="matrix" in="shadowBlurOuter1"></feColorMatrix>
        </filter>
        <linearGradient x1="22.6085902%" y1="42.56665%" x2="39.4620785%" y2="60.7797113%" id="linearGradient-7">
            <stop stop-color="#FFFFFF" offset="0%"></stop>
            <stop stop-color="#D8D8D8" offset="100%"></stop>
        </linearGradient>
        <linearGradient x1="28.1636752%" y1="0%" x2="50%" y2="100%" id="linearGradient-8">
            <stop stop-color="#D1D8E1" offset="0%"></stop>
            <stop stop-color="#A4AFBF" offset="100%"></stop>
        </linearGradient>
        <linearGradient x1="16.5952621%" y1="6.8877551%" x2="50%" y2="93.1122449%" id="linearGradient-9">
            <stop stop-color="#D1D8E1" offset="0%"></stop>
            <stop stop-color="#A4AFBF" offset="100%"></stop>
        </linearGradient>
    </defs>
    <g id="登录" stroke="none" stroke-width="1" fill="none" fill-rule="evenodd">
        <g id="404\" transform="translate(-456.000000, -273.000000)">
            <g id="编组-4" transform="translate(456.000000, 273.000000)">
                <g id="编组-2">
                    <g id="编组">
                        <g id="BG-+-BG-+-BG蒙版" transform="translate(110.500000, 110.500000) rotate(-360.000000) translate(-110.500000, -110.500000) ">
                            <mask id="mask-2" fill="white">
                                <use xlink:href="#path-1"></use>
                            </mask>
                            <use id="蒙版" fill="#F6F7F8" xlink:href="#path-1"></use>
                        </g>
                    </g>
                </g>
                <g id="404" transform="translate(35.000000, 24.000000)">
                    <g id="编组">
                        <g id="编组-3" transform="translate(94.500000, 92.000000) scale(-1, 1) translate(-94.500000, -92.000000) ">
                            <polygon id="路径" fill="url(#linearGradient-3)" fill-rule="nonzero" points="114.5 184 1.48137878e-16 181 60.9370769 52.1992188 170.791346 76.2104314"></polygon>
                            <path d="M128.615385,0.0885658514 C126.52751,-0.319460904 124.58292,0.721007323 124.255411,2.41431836 C123.96884,3.90361602 125.033246,5.37251234 126.711734,5.98455247 L125.278879,14.6347197 C125.217471,14.9815424 125.442634,15.3079638 125.790613,15.3691679 L126.691265,15.5119772 C127.039244,15.5731812 127.366754,15.3487665 127.428162,15.0019438 L128.881486,6.24976986 C130.334811,6.04575649 131.542503,5.16849896 131.767666,3.88321468 C132.115645,2.18990364 130.68279,0.496592607 128.615385,0.0885658514 L128.615385,0.0885658514 Z" id="路径" fill="#D8D8D8" fill-rule="nonzero"></path>
                            <g id="路径">
                                <use fill="black" fill-opacity="1" filter="url(#filter-6)" xlink:href="#path-5"></use>
                                <use fill="url(#linearGradient-4)" fill-rule="evenodd" xlink:href="#path-5"></use>
                            </g>
                            <path d="M108.944329,85.8761913 C67.7395046,77.5524455 36.6056063,59.7624789 39.36897,46.2159906 C42.1323338,32.649101 77.7694915,28.426024 118.994785,36.7905725 C160.220078,45.155121 191.333507,62.8838836 188.570143,76.4507732 C185.80678,90.0176628 150.149153,94.1999371 108.944329,85.8761913 Z" id="路径" fill="url(#linearGradient-7)"></path>
                            <path d="M167.711864,74.0434153 C166.094785,81.8979304 140.241982,83.3056227 109.947327,77.1852214 C79.6526728,71.06482 56.3994785,59.7012749 58.016558,51.8263585 C59.6336375,43.9718434 85.4864407,42.5641511 115.781095,48.6845525 C146.07575,54.8049538 169.328944,66.1480976 167.711864,74.0434153 Z" id="路径" fill="#D5D5D5"></path>
                        </g>
                        <path d="M163.577636,171.88172 L163.566806,171.88172 C160.588596,174.784946 143.336639,177 122.51083,177 C101.685021,177 84.4222338,174.784946 81.444024,171.88172 C81.3465553,171.795699 81.2599165,171.688172 81.1949374,171.580645 C81.1732777,171.537634 81.151618,171.516129 81.1299582,171.473118 C81.0541493,171.344086 81.0108299,171.215054 81,171.064516 L81.0649791,170.634409 C82.3645616,167.473118 100.417928,165 122.51083,165 C144.322156,165 162.213074,167.430108 163.902531,170.526882 L164,171.193548 C163.945851,171.430108 163.805063,171.645161 163.577636,171.88172 Z" id="路径" fill="#BAC7DC"></path>
                        <polygon id="路径" fill="url(#linearGradient-8)" points="98.1495413 113.65675 83.0889908 136.169208 87.2376147 136.990703 88.8761468 128.723317 101.757798 131.292674 100.119266 139.56006 105 140.538862 103.012844 150.658981 98.1321101 149.680179 96.4761468 158 83.5944954 155.430643 85.2504587 147.110822 67 143.47527 68.812844 134.281517 84.8495413 111 98.1495413 113.65675"></polygon>
                        <path d="M137.678695,118.985009 C133.994425,133.010213 125.8364,139.139616 114.818679,136.207395 C103.67815,133.239845 99.6429972,123.877933 103.327267,109.852729 C107.011536,95.8275249 115.11693,89.6981221 126.257459,92.6480076 C137.27518,95.5978931 141.362965,104.959805 137.678695,118.985009 Z M116.643324,113.375484 C114.330027,122.433488 114.364553,125.999631 117.351125,126.802013 C120.268642,127.604396 122.02951,124.519682 124.342808,115.461678 C126.67337,106.332351 126.621579,102.837531 123.704062,102.052979 C120.700227,101.232766 118.973886,104.246157 116.643324,113.375484 L116.643324,113.375484 Z M159.953488,112.924032 L149.487423,138.046839 L153.754627,138.046839 L153.754627,129.590699 L166.977693,129.590699 L166.977693,138.046839 L172,138.046839 L172,148.397716 L166.977693,148.397716 L166.977693,156.924032 L153.754627,156.924032 L153.754627,148.397716 L135,148.397716 L135,138.994208 L146.29141,112.924032 L159.953488,112.924032 L159.953488,112.924032 Z" id="形状" fill="url(#linearGradient-9)"></path>
                    </g>
                </g>
            </g>
        </g>
    </g>
</svg>